# Blender 4.2.3 LTS
# www.blender.org
mtllib minecraft_pig.mtl
o Pig
v -0.101600 0.000000 0.279400
v 0.101600 0.000000 0.279400
v -0.101600 0.000000 0.076200
v 0.101600 0.000000 0.076200
v -0.101600 0.203200 0.279400
v 0.101600 0.203200 0.279400
v -0.101600 0.203200 0.076200
v 0.101600 0.203200 0.076200
v -0.127000 -0.050800 0.127000
v 0.127000 -0.050800 0.127000
v -0.127000 -0.050800 -0.279400
v 0.127000 -0.050800 -0.279400
v -0.127000 0.152400 0.127000
v 0.127000 0.152400 0.127000
v -0.127000 0.152400 -0.279400
v 0.127000 0.152400 -0.279400
v -0.050800 0.025400 0.279400
v 0.050800 0.025400 0.279400
v -0.050800 0.101600 0.279400
v 0.050800 0.101600 0.279400
v -0.050800 0.025400 0.304800
v 0.050800 0.025400 0.304800
v -0.050800 0.101600 0.304800
v 0.050800 0.101600 0.304800
v -0.127000 -0.203200 0.000000
v -0.025400 -0.203200 0.000000
v -0.127000 -0.050800 0.000000
v -0.025400 -0.050800 0.000000
v -0.127000 -0.203200 0.101600
v -0.025400 -0.203200 0.101600
v -0.127000 -0.050800 0.101600
v -0.025400 -0.050800 0.101600
v 0.025400 -0.203200 0.000000
v 0.127000 -0.203200 0.000000
v 0.025400 -0.050800 0.000000
v 0.127000 -0.050800 0.000000
v 0.025400 -0.203200 0.101600
v 0.127000 -0.203200 0.101600
v 0.025400 -0.050800 0.101600
v 0.127000 -0.050800 0.101600
v -0.127000 -0.203200 -0.304800
v -0.025400 -0.203200 -0.304800
v -0.127000 -0.050800 -0.304800
v -0.025400 -0.050800 -0.304800
v -0.127000 -0.203200 -0.203200
v -0.025400 -0.203200 -0.203200
v -0.127000 -0.050800 -0.203200
v -0.025400 -0.050800 -0.203200
v 0.025400 -0.203200 -0.304800
v 0.127000 -0.203200 -0.304800
v 0.025400 -0.050800 -0.304800
v 0.127000 -0.050800 -0.304800
v 0.025400 -0.203200 -0.203200
v 0.127000 -0.203200 -0.203200
v 0.025400 -0.050800 -0.203200
v 0.127000 -0.050800 -0.203200
vn -0.0000 -1.0000 -0.0000
vn -0.0000 1.0000 -0.0000
vn -0.0000 -0.0000 1.0000
vn 1.0000 -0.0000 -0.0000
vn -0.0000 -0.0000 -1.0000
vn -1.0000 -0.0000 -0.0000
vt 0.250000 0.875000
vt 0.250000 1.000000
vt 0.375000 1.000000
vt 0.375000 0.875000
vt 0.125000 0.875000
vt 0.125000 1.000000
vt 0.125000 0.750000
vt 0.250000 0.750000
vt 0.375000 0.750000
vt 0.500000 0.750000
vt 0.500000 0.875000
vt 0.000000 0.750000
vt 0.000000 0.875000
vt 0.562500 0.750000
vt 0.562500 0.500000
vt 0.725000 0.500000
vt 0.725000 0.750000
vt 1.000000 0.750000
vt 0.850000 0.750000
vt 0.850000 0.500000
vt 1.000000 0.500000
vt 0.725000 0.875000
vt 0.562500 0.875000
vt 0.876033 0.750000
vt 0.726033 0.750000
vt 0.726044 0.875000
vt 0.876033 0.875000
vt 0.437491 0.750000
vt 0.437500 0.500000
vt 0.265943 0.687500
vt 0.328000 0.687500
vt 0.328000 0.734000
vt 0.265943 0.733957
vt 0.328000 0.750000
vt 0.387500 0.750000
vt 0.387500 0.734000
vt 0.343000 0.687500
vt 0.343000 0.734000
vt 0.265943 0.750000
vt 0.250000 0.733957
vt 0.250000 0.687500
vt 0.250000 0.600000
vt 0.187500 0.687500
vt 0.187500 0.600000
vt 0.062500 0.600000
vt 0.125000 0.600000
vt 0.125000 0.687500
vt 0.062500 0.687500
vt 0.125000 0.750008
vt 0.187500 0.750008
vt 0.187500 0.687508
vt 0.125000 0.687508
vt 0.062500 0.750000
vt 0.000000 0.687500
vt 0.000000 0.600000
s 1
usemtl 02_-_Default
f 1/1/1 3/2/1 4/3/1 2/4/1
f 5/5/2 6/1/2 8/2/2 7/6/2
f 1/7/3 2/8/3 6/1/3 5/5/3
f 2/8/4 4/9/4 8/4/4 6/1/4
f 4/9/5 3/10/5 7/11/5 8/4/5
f 3/12/6 1/7/6 5/5/6 7/13/6
f 9/14/1 11/15/1 12/16/1 10/17/1
f 13/18/2 14/19/2 16/20/2 15/21/2
f 9/14/3 10/17/3 14/22/3 13/23/3
f 10/17/4 12/16/4 16/20/4 14/19/4
f 12/24/5 11/25/5 15/26/5 16/27/5
f 11/15/6 9/14/6 13/28/6 15/29/6
f 21/30/3 22/31/3 24/32/3 23/33/3
f 17/34/1 18/35/1 22/36/1 21/32/1
f 18/37/4 20/38/4 24/32/4 22/31/4
f 20/34/2 19/39/2 23/33/2 24/32/2
f 19/40/6 17/41/6 21/30/6 23/33/6
f 25/42/5 27/41/5 28/43/5 26/44/5
f 29/45/3 30/46/3 32/47/3 31/48/3
f 25/49/1 26/50/1 30/51/1 29/52/1
f 26/44/4 28/43/4 32/47/4 30/46/4
f 28/49/2 27/53/2 31/48/2 32/47/2
f 27/54/6 25/55/6 29/45/6 31/48/6
f 33/42/5 35/41/5 36/43/5 34/44/5
f 37/45/3 38/46/3 40/47/3 39/48/3
f 33/49/1 34/50/1 38/51/1 37/52/1
f 34/44/4 36/43/4 40/47/4 38/46/4
f 36/49/2 35/53/2 39/48/2 40/47/2
f 35/54/6 33/55/6 37/45/6 39/48/6
f 41/42/5 43/41/5 44/43/5 42/44/5
f 45/45/3 46/46/3 48/47/3 47/48/3
f 41/49/1 42/50/1 46/51/1 45/52/1
f 42/44/4 44/43/4 48/47/4 46/46/4
f 44/49/2 43/53/2 47/48/2 48/47/2
f 43/54/6 41/55/6 45/45/6 47/48/6
f 49/42/5 51/41/5 52/43/5 50/44/5
f 53/45/3 54/46/3 56/47/3 55/48/3
f 49/49/1 50/50/1 54/51/1 53/52/1
f 50/44/4 52/43/4 56/47/4 54/46/4
f 52/49/2 51/53/2 55/48/2 56/47/2
f 51/54/6 49/55/6 53/45/6 55/48/6
